<?xml version="1.0" encoding="utf-8"?>
<!-- Generator: Adobe Illustrator 21.0.2, SVG Export Plug-In . SVG Version: 6.00 Build 0)  -->
<svg version="1.1" id="Layer_1" xmlns="http://www.w3.org/2000/svg" xmlns:xlink="http://www.w3.org/1999/xlink" x="0px" y="0px"
	 viewBox="0 0 302.4 156.9" style="enable-background:new 0 0 302.4 156.9;" xml:space="preserve">
<style type="text/css">
	.st0{fill:#AECD56;}
	.st1{fill-rule:evenodd;clip-rule:evenodd;fill:#FFFFFF;}
</style>
<g>
	<g>
		<g>
			<path class="st0" d="M89.2,122.3v-47h13.1v47H89.2z M115.8,122.3l-13.4-25.9l11.8-21.2H129L117,96l14.4,26.3H115.8z"/>
			<path class="st0" d="M151.8,122.3c-11.8,0-21.5-9.8-21.5-21.4c0-6.8,3.5-13.4,15.4-13.4h18v34.8H151.8z M151.8,96.9H148
				c-1.8,0-5.8,0-5.8,4.8c0,5.2,3.8,10.6,9.6,11.2V96.9z"/>
			<path class="st0" d="M190,122.3v-20.1c0-4.5-0.1-5.6-5.1-5.6H182v25.7h-11.7V87.5h18.2c10,0,13.2,4.2,13.2,13.4v21.4H190z"/>
			<path class="st0" d="M227.8,122.3c-11.8,0-21.5-9.8-21.5-21.4c0-6.8,3.5-13.4,15.4-13.4h6.5V75.2h11.8v47H227.8z M228.2,96.6H224
				c-1.8,0-5.8,0.3-5.8,5.1c0,5.2,3.8,10.6,9.6,11.2h0.3V96.6z"/>
			<path class="st0" d="M264.1,134.3h-12.6l5.7-15L244,87.5h14l5.3,16.5h0.1l5.3-16.5h13L264.1,134.3z"/>
		</g>
		<g>
			<path class="st1" d="M75.1,22.2c-1-1-1.5-4.4-0.5-5.9C79.2,15.3,80.1,22.9,75.1,22.2z"/>
			<path class="st1" d="M83.9,17.7c1,0,0.6-1.3,2-1c0.6,0.8,1.6,1.9,0.5,3C84.8,19.8,84,19.1,83.9,17.7z"/>
			<path class="st1" d="M66.7,25.1c-3.2,0.7-3-1.9-4.4-3c0.4-2.4,2.3-3.3,3.9-4.4C68.2,18.3,67.2,23.8,66.7,25.1z"/>
			<path class="st1" d="M92.3,28.1C87,28.3,92.6,22.8,92.3,28.1L92.3,28.1z"/>
			<path class="st1" d="M74.1,26.1c0.9,0.1,1.1,0.9,1,2c-0.5,0-1,0-1.5,0C73.4,27.1,73.9,26.8,74.1,26.1z"/>
			<path class="st1" d="M83,27.1c2.6,0.8,0.9,4.4,0.5,6.4C77.8,35.9,79.4,27.5,83,27.1z"/>
			<path class="st1" d="M61.3,29.6c0,1.2,0.8,1.5,0.5,3c-0.6,0.6-1.7,0.6-3,0.5c-0.1-1.4-0.9-2.1-1-3.4
				C58.8,28.6,60.2,29.3,61.3,29.6z"/>
			<path class="st1" d="M82,83.7c1-0.7,2.1-1.1,2.5-2.5c1.3,3,1,7.3,0.5,10.8c-4,4.9-8.1,9.6-14.8,11.8c-1.2-1.6,0.8-3.4-0.5-4.9
				c-2.5-0.7-1.9,1.7-3.4,2c-8.7,1-11.6-3.8-15.3-7.9c-2.9-0.3-3.5,1.7-5.9,2c-0.5-2.3-2.6-2.9-2.5-5.9c-1.2-0.6-3-0.6-3.9-1.5
				c-0.3-3.9,3-4.3,2-8.9c-4-0.9-3.1,3.1-5.9,3.4c-1.2-0.9-2.3-1.9-2-4.4c-1.8-0.9-4.1-1.1-4.9-2.9c-0.5-4.1,5.5-1.7,6.4-4.4
				c1.3,1.6,2.4,5.6,5.9,3.4c-0.1-4.5-4.9-4.3-6.4-7.4c0.8-3.6,4.3-4.6,7.4-5.9c-0.5-5.1-1.2-9.5,0-14.3c1.7-0.3,1.6,1,2.5,1.5
				c1.5-1.8,5.2-1.4,6.4-3.4c-1.2-3.5-2.3-4.5-1-8.9c2.3-1,5.5,0,7.4,1c0.4,3.1-1.2,4-1.5,6.4c0.1,0.7,0.8,0.8,1,1.5
				c3.3-0.8,6.6-1.6,10.3-2c-0.6-1.7-3.1-1.5-5.4-1.5C58.2,33.2,71,37,70.7,30c0.8,0,1.6,0,2.5,0c0.9,4.6-2.7,7-1,10.8
				c3.4-0.7,3.7-4.5,7.4-4.9c2.3,1.1,2.9,4,5.9,4.4c-0.3,2.2,0.8,2.8,0.5,4.9c4.1-1.5,7.9-1.4,11.8,0.5c-0.5,3.8,2.1,5.7,4.4,7.9
				c-2.7,1.4-5.7-0.7-7.4,0c0.1,2.2,3.3,1.3,3.9,2.9c0,1.6,0,3.3,0,4.9c0.9,2.3,5.1,2.5,6.4,0.5c0.2,0,0.3,0,0.5,0
				c0.4,0.5,0.9,0.7,1.5,1c-1.2,4.7-9,2.8-10.8,6.9c-1.7-0.2-3.2-0.7-5.4-0.5c-0.9-8.5-6.9-14.5-13.3-19.2c-4.1-3-16.5-2.7-21.7,1
				c-5.2,3.8-7.9,8.4-9.4,16.2c-2.3,19.3,22,31,35.4,17.7c0-0.3,0-0.7,0-1C82,84,82,83.9,82,83.7z"/>
			<path class="st1" d="M38.7,33.5c-1,0-0.6,1.3-2,1c-0.2-0.4-0.4-0.9-1-1C35.6,31.1,38.8,31.1,38.7,33.5z"/>
			<path class="st1" d="M44.1,40.9c-1,1.1-2.2,0.1-3-0.5C41.1,38.9,44.6,39,44.1,40.9z"/>
			<path class="st1" d="M15.5,45.3c2.1,0.3,0.2,3.1-1,1.5C14.7,46.1,15.4,46,15.5,45.3z"/>
			<path class="st1" d="M51.9,105.3c0.1,1.7,0.1,3.3-0.7,4.1c-1.9-0.1-2.9-1.2-2.7-3.4C50.2,106.3,50,104.8,51.9,105.3z"/>
			<path class="st1" d="M72.1,112.7c2.2,0.1,2.4,3,0,3C71.5,115.1,71.5,113.4,72.1,112.7z"/>
			<path class="st1" d="M107.1,67c-0.1,1.1,0.1,1.9,1,2c-0.5-1.8,1.8-0.8,1.5-2.5C108.2,66.1,108.3,67.2,107.1,67z"/>
			<path class="st1" d="M73.7,16c0,2.2,0,4.4,0,6.6c0.6,0,0.9,0.3,1.1,0.7c0.8-0.5,2-1.3,2.6,0c1.2-1.3,2.3-2.6,2.6-4.8
				C78.4,17.3,76,15.2,73.7,16z"/>
			<path class="st1" d="M82.8,16.8c1.1,0.7,0.7,2.4,0.4,3.7c1.9-0.4,3.5,1.1,4.4-0.4c-1-0.6,0.5-1.7,0-3
				C86.3,15.7,83.9,16.5,82.8,16.8z"/>
			<path class="st1" d="M88.9,29.1c1.6-0.4,2.8,0.2,4.9-0.5c0-1.2-0.8-1.4-0.5-3c-1.6,0-2.4-0.8-4.4-0.5
				C88.3,26.5,88.3,27.7,88.9,29.1z"/>
			<path class="st1" d="M104.6,26.6c0,2.1,3.6,0.7,3.4-0.5C106.8,26.1,105.3,25.9,104.6,26.6z"/>
			<path class="st1" d="M69.7,111.8c0.4,1.8-0.8,2.1-0.5,3.9c2.4,2,4.8,1.4,7.4,0c-0.2-1.2-0.8-1.8-0.5-3.4
				C73.4,111.7,72.7,111.3,69.7,111.8z"/>
			<path class="st1" d="M54.4,28.6c-1.6,0.4-1.5-0.8-2.5-1C52.1,24.3,56.3,26,54.4,28.6z"/>
			<path class="st1" d="M41.1,31.5c1.7-0.4,2.1,0.5,3,1c-0.3,1.9-1.9,2.7-3.4,2C40.6,33.3,40.6,32.1,41.1,31.5z"/>
			<path class="st1" d="M25.4,57.6c-0.5,0-0.4,0.6-0.5,1c-1.5,0.4-1.8-0.5-3-0.5C21,54.6,25.9,54.2,25.4,57.6z"/>
			<path class="st1" d="M84.7,61.1c-0.3,0-0.2,0.4-0.3,0.6c-0.9,0.2-1.1-0.3-1.8-0.3C82,59.2,85,59,84.7,61.1z"/>
			<path class="st1" d="M25.4,84.2c0.3,2.3,3.8,1.5,3.4,4.4c-2.3,1-4-1.7-6.4-1C20.7,85.9,22,83.5,25.4,84.2z"/>
		</g>
	</g>
</g>
</svg>
