<svg height="512pt" viewBox="0 -28 512 512" width="512pt" xmlns="http://www.w3.org/2000/svg"><path d="m72 456c-39.703125 0-72-32.296875-72-72 0-4.425781 3.574219-8 8-8s8 3.574219 8 8c0 30.871094 25.128906 56 56 56 4.425781 0 8 3.574219 8 8s-3.574219 8-8 8zm0 0"/><path d="m440 456c-4.425781 0-8-3.574219-8-8s3.574219-8 8-8c13.230469 0 24-10.769531 24-24 0-4.425781 3.574219-8 8-8s8 3.574219 8 8c0 22.054688-17.945312 40-40 40zm0 0"/><path d="m472.007812 80c-4.421874 0-8-3.574219-8-8 0-13.230469-10.769531-24-24-24-4.421874 0-8-3.574219-8-8s3.578126-8 8-8c22.054688 0 40 17.945312 40 40 0 4.425781-3.574218 8-8 8zm0 0"/><path d="m47.984375 80c-4.425781 0-8-3.574219-8-8 0-22.054688 17.945313-40 40-40 4.421875 0 8 3.574219 8 8s-3.578125 8-8 8c-13.230469 0-24 10.769531-24 24 0 4.425781-3.578125 8-8 8zm0 0"/><path d="m79.984375 256c-22.054687 0-40-17.945312-40-40 0-4.425781 3.574219-8 8-8 4.421875 0 8 3.574219 8 8 0 13.230469 10.769531 24 24 24 4.421875 0 8 3.574219 8 8s-3.578125 8-8 8zm0 0"/><path d="m144 256c-4.425781 0-8-3.574219-8-8s3.574219-8 8-8c13.230469 0 24-10.769531 24-24 0-4.425781 3.574219-8 8-8s8 3.574219 8 8c0 22.054688-17.945312 40-40 40zm0 0"/><path d="m176 192c-4.425781 0-8-3.574219-8-8 0-13.230469 10.769531-24 24-24 4.425781 0 8 3.574219 8 8s-3.574219 8-8 8c-4.414062 0-8 3.585938-8 8 0 4.425781-3.574219 8-8 8zm0 0"/><path d="m311.992188 192c-4.425782 0-8-3.574219-8-8 0-4.414062-3.585938-8-8-8-4.425782 0-8-3.574219-8-8s3.574218-8 8-8c13.230468 0 24 10.769531 24 24 0 4.425781-3.578126 8-8 8zm0 0"/><path d="m8 392c-4.425781 0-8-3.574219-8-8v-32c0-4.425781 3.574219-8 8-8s8 3.574219 8 8v32c0 4.425781-3.574219 8-8 8zm0 0"/><path d="m472 424c-4.425781 0-8-3.574219-8-8v-344c0-4.425781 3.574219-8 8-8s8 3.574219 8 8v344c0 4.425781-3.574219 8-8 8zm0 0"/><path d="m440 456h-368c-4.425781 0-8-3.574219-8-8s3.574219-8 8-8h368c4.425781 0 8 3.574219 8 8s-3.574219 8-8 8zm0 0"/><path d="m8 360c-4.425781 0-8-3.574219-8-8 0-13.230469 10.769531-24 24-24 4.425781 0 8 3.574219 8 8s-3.574219 8-8 8c-4.414062 0-8 3.585938-8 8 0 4.425781-3.574219 8-8 8zm0 0"/><path d="m88 344h-64c-4.425781 0-8-3.574219-8-8s3.574219-8 8-8h64c4.425781 0 8 3.574219 8 8s-3.574219 8-8 8zm0 0"/><path d="m440.007812 48h-360.007812c-4.425781 0-8-3.574219-8-8s3.574219-8 8-8h360.007812c4.425782 0 8 3.574219 8 8s-3.574218 8-8 8zm0 0"/><path d="m47.984375 224c-4.425781 0-8-3.574219-8-8v-144c0-4.425781 3.574219-8 8-8 4.421875 0 8 3.574219 8 8v144c0 4.425781-3.578125 8-8 8zm0 0"/><path d="m144 256h-64.015625c-4.425781 0-8-3.574219-8-8s3.574219-8 8-8h64.015625c4.425781 0 8 3.574219 8 8s-3.574219 8-8 8zm0 0"/><path d="m311.992188 344c-4.425782 0-8-3.574219-8-8v-152c0-4.425781 3.574218-8 8-8 4.421874 0 8 3.574219 8 8v152c0 4.425781-3.578126 8-8 8zm0 0"/><path d="m295.992188 176h-103.992188c-4.425781 0-8-3.574219-8-8s3.574219-8 8-8h103.992188c4.421874 0 8 3.574219 8 8s-3.578126 8-8 8zm0 0"/><path d="m176 224c-4.425781 0-8-3.574219-8-8v-32c0-4.425781 3.574219-8 8-8s8 3.574219 8 8v32c0 4.425781-3.574219 8-8 8zm0 0"/><path d="m88 344c-4.425781 0-8-3.574219-8-8 0-8.824219-7.175781-16-16-16s-16 7.175781-16 16c0 4.425781-3.574219 8-8 8s-8-3.574219-8-8c0-17.648438 14.351562-32 32-32s32 14.351562 32 32c0 4.425781-3.574219 8-8 8zm0 0"/><path d="m88 424c-4.425781 0-8-3.574219-8-8v-80c0-4.425781 3.574219-8 8-8s8 3.574219 8 8v80c0 4.425781-3.574219 8-8 8zm0 0"/><path d="m280 344c-4.425781 0-8-3.574219-8-8 0-8.824219-7.175781-16-16-16-4.425781 0-8-3.574219-8-8s3.574219-8 8-8c17.648438 0 32 14.351562 32 32 0 4.425781-3.574219 8-8 8zm0 0"/><path d="m280 424c-4.425781 0-8-3.574219-8-8v-80c0-4.425781 3.574219-8 8-8s8 3.574219 8 8v80c0 4.425781-3.574219 8-8 8zm0 0"/><path d="m256 320h-192c-4.425781 0-8-3.574219-8-8s3.574219-8 8-8h192c4.425781 0 8 3.574219 8 8s-3.574219 8-8 8zm0 0"/><path d="m280 424h-192c-4.425781 0-8-3.574219-8-8s3.574219-8 8-8h192c4.425781 0 8 3.574219 8 8s-3.574219 8-8 8zm0 0"/><path d="m136 360c-4.425781 0-8-3.574219-8-8v-16c0-4.425781 3.574219-8 8-8s8 3.574219 8 8v16c0 4.425781-3.574219 8-8 8zm0 0"/><path d="m136 400c-4.425781 0-8-3.574219-8-8v-16c0-4.425781 3.574219-8 8-8s8 3.574219 8 8v16c0 4.425781-3.574219 8-8 8zm0 0"/><path d="m472 344h-192c-4.425781 0-8-3.574219-8-8s3.574219-8 8-8h192c4.425781 0 8 3.574219 8 8s-3.574219 8-8 8zm0 0"/><path d="m112 320c-4.425781 0-8-3.574219-8-8v-63.992188c0-4.421874 3.574219-8 8-8s8 3.578126 8 8v63.992188c0 4.425781-3.574219 8-8 8zm0 0"/><path d="m128 288h-16.007812c-4.425782 0-8-3.574219-8-8s3.574218-8 8-8h16.007812c4.425781 0 8 3.574219 8 8s-3.574219 8-8 8zm0 0"/><path d="m496 88h-23.992188c-4.421874 0-8-3.574219-8-8s3.578126-8 8-8h23.992188c4.425781 0 8 3.574219 8 8s-3.574219 8-8 8zm0 0"/><path d="m504 96c-4.425781 0-8-3.574219-8-8v-.015625c-4.425781 0-8-3.570313-8-7.992187 0-4.417969 3.574219-7.992188 8-7.992188 8.824219 0 16 7.175781 16 16 0 4.425781-3.574219 8-8 8zm0 0"/><path d="m496 184h-23.992188c-4.421874 0-8-3.574219-8-8s3.578126-8 8-8h23.992188c4.425781 0 8 3.574219 8 8s-3.574219 8-8 8zm0 0"/><path d="m496 184c-4.425781 0-8-3.574219-8-8s3.574219-8 8-8c0-4.425781 3.574219-8 8-8s8 3.574219 8 8c0 8.824219-7.175781 16-16 16zm0 0"/><path d="m504 176c-4.425781 0-8-3.574219-8-8v-80c0-4.425781 3.574219-8 8-8s8 3.574219 8 8v80c0 4.425781-3.574219 8-8 8zm0 0"/><path d="m480 120h-8c-4.425781 0-8-3.574219-8-8s3.574219-8 8-8h8c4.425781 0 8 3.574219 8 8s-3.574219 8-8 8zm0 0"/><path d="m480 152h-7.992188c-4.421874 0-8-3.574219-8-8s3.578126-8 8-8h7.992188c4.425781 0 8 3.574219 8 8s-3.574219 8-8 8zm0 0"/><path d="m392 304c-26.472656 0-48-21.527344-48-48s21.527344-48 48-48 48 21.527344 48 48-21.527344 48-48 48zm0-80c-17.648438 0-32 14.351562-32 32s14.351562 32 32 32 32-14.351562 32-32-14.351562-32-32-32zm0 0"/><path d="m392.238281 200c-4.421875 0-8.039062-3.574219-8.039062-8s3.535156-8 7.953125-8h.085937c4.417969 0 8 3.574219 8 8s-3.582031 8-8 8zm0 0"/><path d="m392.238281 248c-4.421875 0-8.039062-3.574219-8.039062-8s3.535156-8 7.953125-8h.085937c4.417969 0 8 3.574219 8 8s-3.582031 8-8 8zm0 0"/><path d="m360.238281 208.574219c-4.421875 0-8.039062-3.574219-8.039062-8 0-4.421875 3.535156-8 7.953125-8h.085937c4.417969 0 8 3.578125 8 8 0 4.425781-3.582031 8-8 8zm0 0"/><path d="m336.816406 232c-4.425781 0-8.039062-3.574219-8.039062-8s3.535156-8 7.949218-8h.089844c4.414063 0 8 3.574219 8 8s-3.59375 8-8 8zm0 0"/><path d="m447.65625 232c-4.425781 0-8.039062-3.574219-8.039062-8s3.535156-8 7.949218-8h.089844c4.414062 0 8 3.574219 8 8s-3.585938 8-8 8zm0 0"/><path d="m424.222656 208.574219c-4.421875 0-8.039062-3.574219-8.039062-8 0-4.421875 3.535156-8 7.953125-8h.085937c4.417969 0 8 3.578125 8 8 0 4.425781-3.582031 8-8 8zm0 0"/><path d="m112 232c-4.425781 0-8-3.574219-8-8v-184c0-4.425781 3.574219-8 8-8s8 3.574219 8 8v184c0 4.425781-3.574219 8-8 8zm0 0"/><path d="m432 128h-80c-4.425781 0-8-3.574219-8-8v-40c0-4.425781 3.574219-8 8-8h80c4.425781 0 8 3.574219 8 8v40c0 4.425781-3.574219 8-8 8zm-72-16h64v-24h-64zm0 0"/><path d="m224 128c-13.230469 0-24-10.769531-24-24s10.769531-24 24-24 24 10.769531 24 24-10.769531 24-24 24zm0-32c-4.414062 0-8 3.585938-8 8s3.585938 8 8 8 8-3.585938 8-8-3.585938-8-8-8zm0 0"/><path d="m272 128c-4.425781 0-8-3.574219-8-8s3.574219-8 8-8c4.414062 0 8-3.585938 8-8s-3.585938-8-8-8c-4.425781 0-8-3.574219-8-8s3.574219-8 8-8c13.230469 0 24 10.769531 24 24s-10.769531 24-24 24zm0 0"/><path d="m272 128h-48c-4.425781 0-8-3.574219-8-8s3.574219-8 8-8h48c4.425781 0 8 3.574219 8 8s-3.574219 8-8 8zm0 0"/><path d="m272 96h-48c-4.425781 0-8-3.574219-8-8s3.574219-8 8-8h48c4.425781 0 8 3.574219 8 8s-3.574219 8-8 8zm0 0"/><path d="m272 48c-4.425781 0-8-3.574219-8-8v-32c0-4.425781 3.574219-8 8-8s8 3.574219 8 8v32c0 4.425781-3.574219 8-8 8zm0 0"/><path d="m368 16h-96c-4.425781 0-8-3.574219-8-8s3.574219-8 8-8h96c4.425781 0 8 3.574219 8 8s-3.574219 8-8 8zm0 0"/><path d="m368 48c-4.425781 0-8-3.574219-8-8v-32c0-4.425781 3.574219-8 8-8s8 3.574219 8 8v32c0 4.425781-3.574219 8-8 8zm0 0"/><path d="m295.992188 48c-1.199219 0-2.425782-.273438-3.566407-.839844-3.953125-1.976562-5.554687-6.785156-3.578125-10.734375l16-32c1.984375-3.953125 6.785156-5.546875 10.738282-3.578125 3.949218 1.976563 5.550781 6.785156 3.574218 10.738282l-16 32c-1.40625 2.796874-4.230468 4.414062-7.167968 4.414062zm0 0"/><path d="m327.992188 48c-1.199219 0-2.425782-.273438-3.566407-.839844-3.953125-1.976562-5.554687-6.785156-3.578125-10.734375l16-32c1.984375-3.953125 6.777344-5.546875 10.738282-3.578125 3.949218 1.976563 5.550781 6.785156 3.574218 10.738282l-16 32c-1.40625 2.796874-4.230468 4.414062-7.167968 4.414062zm0 0"/><path d="m432 48c-4.425781 0-8-3.574219-8-8v-24c0-4.425781 3.574219-8 8-8s8 3.574219 8 8v24c0 4.425781-3.574219 8-8 8zm0 0"/><path d="m440.007812 24h-16.007812c-4.425781 0-8-3.574219-8-8s3.574219-8 8-8h16.007812c4.425782 0 8 3.574219 8 8s-3.574218 8-8 8zm0 0"/></svg>